<svg xmlns="http://www.w3.org/2000/svg" xmlns:xlink="http://www.w3.org/1999/xlink" width="500" zoomAndPan="magnify" viewBox="0 0 375 374.999991" height="500" preserveAspectRatio="xMidYMid meet" version="1.0"><defs><g/><clipPath id="653a2ec600"><path d="M 131.253906 87.421875 L 243.753906 87.421875 L 243.753906 198.421875 L 131.253906 198.421875 Z M 131.253906 87.421875 " clip-rule="nonzero"/></clipPath></defs><g clip-path="url(#653a2ec600)"><path fill="#5ce1e6" d="M 167.980469 165.398438 C 165.9375 165.398438 164.277344 163.738281 164.277344 161.691406 L 164.277344 124.800781 C 164.277344 122.75 165.9375 121.089844 167.980469 121.089844 L 204.808594 121.089844 C 206.855469 121.089844 208.511719 122.75 208.511719 124.800781 L 208.511719 161.691406 C 208.511719 163.738281 206.855469 165.398438 204.808594 165.398438 Z M 226.730469 154.1875 C 227.324219 153.59375 228.289062 153.59375 228.882812 154.1875 C 229.167969 154.476562 229.328125 154.859375 229.328125 155.265625 C 229.328125 155.671875 229.167969 156.054688 228.882812 156.34375 C 228.59375 156.632812 228.210938 156.789062 227.804688 156.789062 C 227.398438 156.789062 227.015625 156.632812 226.730469 156.34375 C 226.441406 156.054688 226.285156 155.671875 226.285156 155.265625 C 226.285156 154.859375 226.441406 154.476562 226.730469 154.1875 Z M 198.042969 188.632812 C 197.753906 188.921875 197.375 189.078125 196.96875 189.078125 C 196.5625 189.078125 196.179688 188.921875 195.890625 188.632812 C 195.605469 188.34375 195.445312 187.960938 195.445312 187.554688 C 195.445312 187.148438 195.605469 186.765625 195.890625 186.476562 C 196.179688 186.191406 196.5625 186.03125 196.96875 186.03125 C 197.375 186.03125 197.753906 186.191406 198.042969 186.476562 C 198.636719 187.070312 198.636719 188.039062 198.042969 188.632812 Z M 177.804688 182.140625 C 177.519531 182.429688 177.136719 182.589844 176.730469 182.589844 C 176.324219 182.589844 175.941406 182.429688 175.652344 182.140625 C 175.367188 181.855469 175.207031 181.472656 175.207031 181.066406 C 175.207031 180.65625 175.367188 180.277344 175.652344 179.988281 C 175.941406 179.699219 176.324219 179.539062 176.730469 179.539062 C 177.136719 179.539062 177.519531 179.699219 177.804688 179.988281 C 178.398438 180.582031 178.398438 181.550781 177.804688 182.140625 Z M 143.226562 154.75 C 142.632812 155.34375 141.667969 155.34375 141.074219 154.75 C 140.789062 154.460938 140.628906 154.078125 140.628906 153.671875 C 140.628906 153.261719 140.789062 152.878906 141.074219 152.59375 C 141.363281 152.304688 141.742188 152.144531 142.148438 152.144531 C 142.558594 152.144531 142.9375 152.304688 143.226562 152.59375 C 143.511719 152.878906 143.671875 153.261719 143.671875 153.671875 C 143.671875 154.078125 143.511719 154.460938 143.226562 154.75 Z M 149.707031 134.476562 C 149.113281 135.070312 148.148438 135.070312 147.554688 134.476562 C 147.265625 134.1875 147.109375 133.804688 147.109375 133.398438 C 147.109375 132.992188 147.265625 132.609375 147.554688 132.320312 C 147.839844 132.03125 148.222656 131.875 148.628906 131.875 C 149.035156 131.875 149.417969 132.03125 149.707031 132.320312 C 149.992188 132.609375 150.152344 132.992188 150.152344 133.398438 C 150.152344 133.804688 149.992188 134.1875 149.707031 134.476562 Z M 176.105469 98.550781 C 176.394531 98.261719 176.777344 98.101562 177.183594 98.101562 C 177.589844 98.101562 177.972656 98.261719 178.257812 98.550781 C 178.546875 98.839844 178.703125 99.21875 178.703125 99.628906 C 178.703125 100.035156 178.546875 100.417969 178.257812 100.703125 C 177.972656 100.992188 177.589844 101.152344 177.183594 101.152344 C 176.777344 101.152344 176.394531 100.992188 176.105469 100.703125 C 175.511719 100.109375 175.511719 99.144531 176.105469 98.550781 Z M 196.34375 105.039062 C 196.632812 104.75 197.015625 104.59375 197.421875 104.59375 C 197.828125 104.59375 198.210938 104.75 198.496094 105.039062 C 198.785156 105.328125 198.941406 105.710938 198.941406 106.117188 C 198.941406 106.523438 198.785156 106.90625 198.496094 107.195312 C 198.210938 107.480469 197.828125 107.640625 197.421875 107.640625 C 197.015625 107.640625 196.632812 107.480469 196.34375 107.195312 C 195.753906 106.601562 195.753906 105.632812 196.34375 105.039062 Z M 233.210938 133.914062 C 233.800781 133.320312 234.769531 133.320312 235.359375 133.914062 C 235.648438 134.203125 235.804688 134.585938 235.804688 134.992188 C 235.804688 135.398438 235.648438 135.78125 235.359375 136.070312 C 235.074219 136.359375 234.691406 136.515625 234.285156 136.515625 C 233.878906 136.515625 233.496094 136.359375 233.210938 136.070312 C 232.921875 135.78125 232.761719 135.398438 232.761719 134.992188 C 232.761719 134.585938 232.921875 134.203125 233.210938 133.914062 Z M 242.292969 142.960938 C 240.847656 141.511719 238.503906 141.511719 237.058594 142.960938 C 236.542969 143.476562 236.210938 144.109375 236.0625 144.777344 L 214.238281 144.777344 L 214.238281 135.800781 L 232.285156 135.800781 C 232.390625 136.0625 232.546875 136.308594 232.757812 136.519531 C 233.601562 137.367188 234.96875 137.367188 235.808594 136.519531 C 236.652344 135.675781 236.652344 134.308594 235.808594 133.464844 C 234.96875 132.621094 233.601562 132.621094 232.757812 133.464844 C 232.546875 133.679688 232.390625 133.921875 232.285156 134.183594 L 214.238281 134.183594 L 214.238281 119.0625 C 214.238281 118.382812 214.058594 117.746094 213.738281 117.199219 L 225.945312 104.972656 L 233.917969 107.75 C 233.8125 108.816406 234.164062 109.925781 234.984375 110.746094 C 236.429688 112.191406 238.773438 112.191406 240.21875 110.746094 C 241.667969 109.296875 241.667969 106.949219 240.21875 105.5 C 238.773438 104.050781 236.429688 104.050781 234.984375 105.5 C 234.765625 105.71875 234.578125 105.960938 234.425781 106.214844 L 225.574219 103.132812 L 225.539062 103.097656 L 225.519531 103.113281 L 225.46875 103.097656 L 225.433594 103.199219 L 212.644531 116.011719 C 212.046875 115.59375 211.320312 115.351562 210.539062 115.351562 L 198.167969 115.351562 L 198.167969 108.144531 C 198.449219 108.039062 198.71875 107.875 198.945312 107.644531 C 199.789062 106.800781 199.789062 105.433594 198.945312 104.589844 C 198.105469 103.746094 196.738281 103.746094 195.894531 104.589844 C 195.054688 105.433594 195.054688 106.800781 195.894531 107.644531 C 196.089844 107.839844 196.316406 107.988281 196.554688 108.09375 L 196.554688 115.351562 L 188.5625 115.351562 L 188.5625 95.113281 C 189.226562 94.964844 189.855469 94.636719 190.375 94.117188 C 191.820312 92.667969 191.820312 90.320312 190.375 88.871094 C 188.925781 87.425781 186.582031 87.425781 185.136719 88.871094 C 183.691406 90.320312 183.691406 92.667969 185.136719 94.117188 C 185.652344 94.636719 186.285156 94.964844 186.949219 95.113281 L 186.949219 115.351562 L 177.988281 115.351562 L 177.988281 101.632812 C 178.25 101.527344 178.496094 101.367188 178.707031 101.15625 C 179.550781 100.3125 179.550781 98.945312 178.707031 98.097656 C 177.867188 97.253906 176.5 97.253906 175.65625 98.097656 C 174.816406 98.945312 174.816406 100.3125 175.65625 101.15625 C 175.871094 101.367188 176.113281 101.527344 176.375 101.632812 L 176.375 115.351562 L 162.25 115.351562 C 161.503906 115.351562 160.804688 115.574219 160.222656 115.957031 L 148.34375 104.058594 L 151.117188 96.074219 C 152.183594 96.179688 153.289062 95.824219 154.109375 95.007812 C 155.554688 93.558594 155.554688 91.207031 154.109375 89.761719 C 152.664062 88.3125 150.316406 88.3125 148.871094 89.761719 C 147.425781 91.207031 147.425781 93.558594 148.871094 95.007812 C 149.089844 95.222656 149.332031 95.410156 149.585938 95.566406 L 146.507812 104.433594 L 146.472656 104.46875 L 146.488281 104.484375 L 146.472656 104.535156 L 146.574219 104.574219 L 159.097656 117.117188 C 158.75 117.679688 158.546875 118.347656 158.546875 119.0625 L 158.546875 132.648438 L 150.652344 132.648438 C 150.546875 132.367188 150.382812 132.097656 150.15625 131.871094 C 149.3125 131.027344 147.945312 131.027344 147.105469 131.871094 C 146.261719 132.714844 146.261719 134.082031 147.105469 134.925781 C 147.945312 135.769531 149.3125 135.769531 150.15625 134.925781 C 150.351562 134.730469 150.5 134.503906 150.601562 134.265625 L 158.546875 134.265625 L 158.546875 142.273438 L 140.371094 142.273438 C 140.226562 141.605469 139.894531 140.976562 139.378906 140.457031 C 137.929688 139.007812 135.585938 139.007812 134.140625 140.457031 C 132.695312 141.90625 132.695312 144.253906 134.140625 145.703125 C 135.585938 147.152344 137.929688 147.152344 139.378906 145.703125 C 139.894531 145.183594 140.226562 144.550781 140.371094 143.886719 L 158.546875 143.886719 L 158.546875 152.863281 L 144.152344 152.863281 C 144.046875 152.601562 143.886719 152.355469 143.675781 152.144531 C 142.832031 151.300781 141.46875 151.300781 140.625 152.144531 C 139.78125 152.984375 139.78125 154.355469 140.625 155.199219 C 141.46875 156.042969 142.832031 156.042969 143.675781 155.199219 C 143.886719 154.988281 144.046875 154.742188 144.152344 154.476562 L 158.546875 154.476562 L 158.546875 167.429688 C 158.546875 168.097656 158.726562 168.726562 159.035156 169.265625 L 146.972656 181.351562 L 139 178.574219 C 139.109375 177.503906 138.753906 176.398438 137.933594 175.578125 C 136.488281 174.128906 134.144531 174.128906 132.699219 175.578125 C 131.253906 177.023438 131.253906 179.375 132.699219 180.820312 C 134.144531 182.269531 136.488281 182.269531 137.933594 180.820312 C 138.152344 180.601562 138.339844 180.359375 138.492188 180.105469 L 147.34375 183.191406 L 147.382812 183.226562 L 147.398438 183.207031 L 147.449219 183.226562 L 147.484375 183.121094 L 160.125 170.460938 C 160.726562 170.886719 161.460938 171.136719 162.25 171.136719 L 175.984375 171.136719 L 175.984375 179.039062 C 175.699219 179.144531 175.433594 179.308594 175.203125 179.539062 C 174.363281 180.382812 174.363281 181.75 175.203125 182.59375 C 176.046875 183.4375 177.414062 183.4375 178.253906 182.59375 C 179.097656 181.75 179.097656 180.382812 178.253906 179.539062 C 178.058594 179.339844 177.835938 179.191406 177.59375 179.085938 L 177.59375 171.136719 L 185.589844 171.136719 L 185.589844 189.335938 C 184.925781 189.484375 184.292969 189.816406 183.777344 190.332031 C 182.332031 191.78125 182.332031 194.128906 183.777344 195.578125 C 185.222656 197.027344 187.566406 197.027344 189.011719 195.578125 C 190.457031 194.128906 190.457031 191.78125 189.011719 190.332031 C 188.496094 189.816406 187.863281 189.484375 187.199219 189.335938 L 187.199219 171.136719 L 196.160156 171.136719 L 196.160156 185.550781 C 195.898438 185.65625 195.652344 185.816406 195.441406 186.027344 C 194.601562 186.871094 194.601562 188.238281 195.441406 189.082031 C 196.285156 189.925781 197.652344 189.925781 198.492188 189.082031 C 199.335938 188.238281 199.335938 186.871094 198.492188 186.027344 C 198.28125 185.816406 198.035156 185.65625 197.773438 185.550781 L 197.773438 171.136719 L 210.539062 171.136719 C 211.304688 171.136719 212.015625 170.90625 212.609375 170.503906 L 224.765625 182.679688 L 221.992188 190.667969 C 220.925781 190.558594 219.820312 190.914062 219 191.734375 C 217.554688 193.183594 217.554688 195.53125 219 196.980469 C 220.449219 198.429688 222.792969 198.429688 224.238281 196.980469 C 225.683594 195.53125 225.683594 193.183594 224.238281 191.734375 C 224.019531 191.515625 223.777344 191.328125 223.523438 191.175781 L 226.601562 182.308594 L 226.636719 182.273438 L 226.621094 182.253906 L 226.636719 182.203125 L 226.535156 182.167969 L 213.71875 169.328125 C 214.050781 168.773438 214.238281 168.125 214.238281 167.429688 L 214.238281 156.015625 L 225.785156 156.015625 C 225.886719 156.296875 226.050781 156.566406 226.28125 156.792969 C 227.125 157.636719 228.488281 157.636719 229.332031 156.792969 C 230.175781 155.949219 230.175781 154.582031 229.332031 153.738281 C 228.488281 152.894531 227.125 152.894531 226.28125 153.738281 C 226.085938 153.933594 225.9375 154.160156 225.832031 154.398438 L 214.238281 154.398438 L 214.238281 146.390625 L 236.0625 146.390625 C 236.210938 147.054688 236.542969 147.6875 237.058594 148.207031 C 238.503906 149.65625 240.847656 149.65625 242.292969 148.207031 C 243.742188 146.757812 243.742188 144.410156 242.292969 142.960938 " fill-opacity="1" fill-rule="nonzero"/></g><path fill="#5ce1e6" d="M 196.570312 149.753906 C 196.570312 151.839844 194.878906 153.53125 192.796875 153.53125 L 179.847656 153.53125 C 177.761719 153.53125 176.074219 151.839844 176.074219 149.753906 L 176.074219 136.78125 C 176.074219 134.691406 177.761719 133 179.847656 133 L 192.796875 133 C 194.878906 133 196.570312 134.691406 196.570312 136.78125 Z M 195.449219 130.34375 L 177.191406 130.34375 C 175.109375 130.34375 173.417969 132.035156 173.417969 134.121094 L 173.417969 152.410156 C 173.417969 154.5 175.109375 156.191406 177.191406 156.191406 L 195.449219 156.191406 C 197.535156 156.191406 199.222656 154.5 199.222656 152.410156 L 199.222656 134.121094 C 199.222656 132.035156 197.535156 130.34375 195.449219 130.34375 " fill-opacity="1" fill-rule="nonzero"/><g fill="#ffffff" fill-opacity="1"><g transform="translate(42.257814, 236.279003)"><g><path d="M 11.78125 -3.234375 L 11.78125 -1.875 C 11.78125 -1.195312 11.613281 -0.710938 11.28125 -0.421875 C 10.957031 -0.140625 10.378906 0 9.546875 0 L 4.484375 0 C 3.648438 0 3.066406 -0.140625 2.734375 -0.421875 C 2.398438 -0.710938 2.234375 -1.195312 2.234375 -1.875 L 2.234375 -7.34375 C 2.234375 -7.976562 2.398438 -8.429688 2.734375 -8.703125 C 3.078125 -8.984375 3.660156 -9.125 4.484375 -9.125 L 9.546875 -9.125 C 10.367188 -9.125 10.945312 -8.984375 11.28125 -8.703125 C 11.613281 -8.429688 11.78125 -7.976562 11.78125 -7.34375 L 11.78125 -6.265625 L 9.75 -5.9375 L 9.75 -7.546875 L 4.28125 -7.546875 L 4.28125 -1.65625 L 9.75 -1.65625 L 9.75 -3.5625 Z M 11.78125 -3.234375 "/></g></g></g><g fill="#ffffff" fill-opacity="1"><g transform="translate(56.072263, 236.279003)"><g><path d="M 8.625 -3.609375 L 12.3125 0 L 9.625 0 L 6.125 -3.609375 L 4.28125 -3.609375 L 4.28125 0 L 2.234375 0 L 2.234375 -9.125 L 9.546875 -9.125 C 10.367188 -9.125 10.945312 -8.984375 11.28125 -8.703125 C 11.613281 -8.429688 11.78125 -7.976562 11.78125 -7.34375 L 11.78125 -5.3125 C 11.78125 -4.175781 11.035156 -3.609375 9.546875 -3.609375 Z M 4.28125 -7.546875 L 4.28125 -5.109375 L 8.921875 -5.109375 C 9.148438 -5.109375 9.34375 -5.179688 9.5 -5.328125 C 9.664062 -5.472656 9.75 -5.660156 9.75 -5.890625 L 9.75 -6.765625 C 9.75 -6.992188 9.664062 -7.179688 9.5 -7.328125 C 9.34375 -7.472656 9.148438 -7.546875 8.921875 -7.546875 Z M 4.28125 -7.546875 "/></g></g></g><g fill="#ffffff" fill-opacity="1"><g transform="translate(69.496754, 236.279003)"><g><path d="M 4.28125 0 L 2.234375 0 L 2.234375 -9.125 L 4.28125 -9.125 Z M 4.28125 0 "/></g></g></g><g fill="#ffffff" fill-opacity="1"><g transform="translate(76.009872, 236.279003)"><g><path d="M 7.890625 -9.125 L 12.953125 0 L 10.78125 0 L 9.671875 -2 L 3.84375 -2 L 2.734375 0 L 0.75 0 L 5.8125 -9.125 Z M 4.671875 -3.484375 L 8.84375 -3.484375 L 6.75 -7.25 Z M 4.671875 -3.484375 "/></g></g></g><g fill="#ffffff" fill-opacity="1"><g transform="translate(89.708163, 236.279003)"><g><path d="M 7.203125 1.5 L 6.125 1.5 L 6.125 2.5 L 9.609375 2.5 L 7 -0.09375 L 6.3125 0.609375 Z M 11.78125 -3.234375 L 11.78125 -1.875 C 11.78125 -1.195312 11.613281 -0.710938 11.28125 -0.421875 C 10.957031 -0.140625 10.378906 0 9.546875 0 L 4.484375 0 C 3.648438 0 3.066406 -0.140625 2.734375 -0.421875 C 2.398438 -0.710938 2.234375 -1.195312 2.234375 -1.875 L 2.234375 -7.34375 C 2.234375 -7.976562 2.398438 -8.429688 2.734375 -8.703125 C 3.078125 -8.984375 3.660156 -9.125 4.484375 -9.125 L 9.546875 -9.125 C 10.367188 -9.125 10.945312 -8.984375 11.28125 -8.703125 C 11.613281 -8.429688 11.78125 -7.976562 11.78125 -7.34375 L 11.78125 -6.265625 L 9.75 -5.9375 L 9.75 -7.546875 L 4.28125 -7.546875 L 4.28125 -1.65625 L 9.75 -1.65625 L 9.75 -3.5625 Z M 11.78125 -3.234375 "/></g></g></g><g fill="#ffffff" fill-opacity="1"><g transform="translate(103.522612, 236.279003)"><g><path d="M 3.078125 -11.5 C 3.765625 -12.007812 4.441406 -12.265625 5.109375 -12.265625 C 5.367188 -12.265625 5.632812 -12.222656 5.90625 -12.140625 C 6.1875 -12.066406 6.4375 -11.972656 6.65625 -11.859375 C 6.882812 -11.753906 7.101562 -11.644531 7.3125 -11.53125 C 7.53125 -11.425781 7.75 -11.332031 7.96875 -11.25 C 8.195312 -11.175781 8.410156 -11.140625 8.609375 -11.140625 C 9.128906 -11.140625 9.695312 -11.398438 10.3125 -11.921875 L 10.625 -12.1875 L 10.625 -10.890625 C 9.945312 -10.390625 9.273438 -10.140625 8.609375 -10.140625 C 8.335938 -10.140625 8.066406 -10.175781 7.796875 -10.25 C 7.523438 -10.332031 7.273438 -10.425781 7.046875 -10.53125 C 6.828125 -10.644531 6.609375 -10.753906 6.390625 -10.859375 C 6.179688 -10.972656 5.960938 -11.066406 5.734375 -11.140625 C 5.515625 -11.222656 5.304688 -11.265625 5.109375 -11.265625 C 4.585938 -11.265625 4.019531 -11.003906 3.40625 -10.484375 L 3.078125 -10.21875 Z M 7.890625 -9.125 L 12.953125 0 L 10.78125 0 L 9.671875 -2 L 3.84375 -2 L 2.734375 0 L 0.75 0 L 5.8125 -9.125 Z M 4.671875 -3.484375 L 8.84375 -3.484375 L 6.75 -7.25 Z M 4.671875 -3.484375 "/></g></g></g><g fill="#ffffff" fill-opacity="1"><g transform="translate(117.220903, 236.279003)"><g><path d="M 12.953125 -1.875 C 12.953125 -1.195312 12.785156 -0.710938 12.453125 -0.421875 C 12.117188 -0.140625 11.535156 0 10.703125 0 L 4.484375 0 C 3.648438 0 3.066406 -0.140625 2.734375 -0.421875 C 2.398438 -0.710938 2.234375 -1.195312 2.234375 -1.875 L 2.234375 -7.34375 C 2.234375 -7.976562 2.398438 -8.429688 2.734375 -8.703125 C 3.078125 -8.984375 3.660156 -9.125 4.484375 -9.125 L 10.703125 -9.125 C 11.523438 -9.125 12.101562 -8.984375 12.4375 -8.703125 C 12.78125 -8.429688 12.953125 -7.976562 12.953125 -7.34375 Z M 10.921875 -7.546875 L 4.28125 -7.546875 L 4.28125 -1.65625 L 10.921875 -1.65625 Z M 10.921875 -7.546875 "/></g></g></g><g fill="#ffffff" fill-opacity="1"><g transform="translate(132.40435, 236.279003)"><g/></g></g><g fill="#ffffff" fill-opacity="1"><g transform="translate(138.917469, 236.279003)"><g><path d="M 8.046875 -7.546875 L 4.28125 -7.546875 L 4.28125 -1.65625 L 6.96875 -1.65625 C 7.519531 -1.65625 8.019531 -1.710938 8.46875 -1.828125 C 8.914062 -1.941406 9.285156 -2.09375 9.578125 -2.28125 C 9.867188 -2.476562 10.109375 -2.707031 10.296875 -2.96875 C 10.492188 -3.238281 10.632812 -3.515625 10.71875 -3.796875 C 10.800781 -4.078125 10.84375 -4.375 10.84375 -4.6875 C 10.84375 -5.050781 10.78125 -5.398438 10.65625 -5.734375 C 10.539062 -6.078125 10.367188 -6.382812 10.140625 -6.65625 C 9.921875 -6.925781 9.628906 -7.140625 9.265625 -7.296875 C 8.898438 -7.460938 8.492188 -7.546875 8.046875 -7.546875 Z M 8.09375 0 L 2.234375 0 L 2.234375 -9.125 L 8.09375 -9.125 C 8.726562 -9.125 9.3125 -9.035156 9.84375 -8.859375 C 10.382812 -8.679688 10.835938 -8.441406 11.203125 -8.140625 C 11.578125 -7.835938 11.894531 -7.488281 12.15625 -7.09375 C 12.425781 -6.695312 12.625 -6.273438 12.75 -5.828125 C 12.882812 -5.378906 12.953125 -4.914062 12.953125 -4.4375 C 12.953125 -3.988281 12.890625 -3.550781 12.765625 -3.125 C 12.648438 -2.695312 12.460938 -2.289062 12.203125 -1.90625 C 11.953125 -1.53125 11.640625 -1.203125 11.265625 -0.921875 C 10.890625 -0.640625 10.429688 -0.414062 9.890625 -0.25 C 9.347656 -0.0820312 8.75 0 8.09375 0 Z M 8.09375 0 "/></g></g></g><g fill="#ffffff" fill-opacity="1"><g transform="translate(153.354189, 236.279003)"><g><path d="M 11.296875 0 L 2.234375 0 L 2.234375 -9.125 L 11.171875 -9.125 L 11.171875 -7.546875 L 4.28125 -7.546875 L 4.28125 -5.515625 L 8.921875 -5.515625 L 8.921875 -4.03125 L 4.28125 -4.03125 L 4.28125 -1.65625 L 11.296875 -1.65625 Z M 11.296875 0 "/></g></g></g><g fill="#ffffff" fill-opacity="1"><g transform="translate(166.131517, 236.279003)"><g/></g></g><g fill="#ffffff" fill-opacity="1"><g transform="translate(172.644635, 236.279003)"><g><path d="M 11.78125 -3.234375 L 11.78125 -1.875 C 11.78125 -1.195312 11.613281 -0.710938 11.28125 -0.421875 C 10.957031 -0.140625 10.378906 0 9.546875 0 L 4.484375 0 C 3.648438 0 3.066406 -0.140625 2.734375 -0.421875 C 2.398438 -0.710938 2.234375 -1.195312 2.234375 -1.875 L 2.234375 -7.34375 C 2.234375 -7.976562 2.398438 -8.429688 2.734375 -8.703125 C 3.078125 -8.984375 3.660156 -9.125 4.484375 -9.125 L 9.546875 -9.125 C 10.367188 -9.125 10.945312 -8.984375 11.28125 -8.703125 C 11.613281 -8.429688 11.78125 -7.976562 11.78125 -7.34375 L 11.78125 -6.265625 L 9.75 -5.9375 L 9.75 -7.546875 L 4.28125 -7.546875 L 4.28125 -1.65625 L 9.75 -1.65625 L 9.75 -3.5625 Z M 11.78125 -3.234375 "/></g></g></g><g fill="#ffffff" fill-opacity="1"><g transform="translate(186.459084, 236.279003)"><g><path d="M 12.953125 -1.875 C 12.953125 -1.195312 12.785156 -0.710938 12.453125 -0.421875 C 12.117188 -0.140625 11.535156 0 10.703125 0 L 4.484375 0 C 3.648438 0 3.066406 -0.140625 2.734375 -0.421875 C 2.398438 -0.710938 2.234375 -1.195312 2.234375 -1.875 L 2.234375 -7.34375 C 2.234375 -7.976562 2.398438 -8.429688 2.734375 -8.703125 C 3.078125 -8.984375 3.660156 -9.125 4.484375 -9.125 L 10.703125 -9.125 C 11.523438 -9.125 12.101562 -8.984375 12.4375 -8.703125 C 12.78125 -8.429688 12.953125 -7.976562 12.953125 -7.34375 Z M 10.921875 -7.546875 L 4.28125 -7.546875 L 4.28125 -1.65625 L 10.921875 -1.65625 Z M 10.921875 -7.546875 "/></g></g></g><g fill="#ffffff" fill-opacity="1"><g transform="translate(201.642531, 236.279003)"><g><path d="M 10.390625 0 L 4.28125 -6.625 L 4.28125 0 L 2.234375 0 L 2.234375 -9.125 L 4.5625 -9.125 L 10.671875 -2.5 L 10.671875 -9.125 L 12.703125 -9.125 L 12.703125 0 Z M 10.390625 0 "/></g></g></g><g fill="#ffffff" fill-opacity="1"><g transform="translate(216.57707, 236.279003)"><g><path d="M 6.34375 0 L 4.3125 0 L 4.3125 -7.546875 L 0.25 -7.546875 L 0.25 -9.125 L 10.421875 -9.125 L 10.421875 -7.546875 L 6.34375 -7.546875 Z M 6.34375 0 "/></g></g></g><g fill="#ffffff" fill-opacity="1"><g transform="translate(227.238672, 236.279003)"><g><path d="M 11.296875 0 L 2.234375 0 L 2.234375 -9.125 L 11.171875 -9.125 L 11.171875 -7.546875 L 4.28125 -7.546875 L 4.28125 -5.515625 L 8.921875 -5.515625 L 8.921875 -4.03125 L 4.28125 -4.03125 L 4.28125 -1.65625 L 11.296875 -1.65625 Z M 11.296875 0 "/></g></g></g><g fill="#ffffff" fill-opacity="1"><g transform="translate(240.01601, 236.279003)"><g><path d="M 6.46875 -10.140625 L 5.0625 -10.140625 L 7.921875 -14.203125 L 9.375 -14.203125 Z M 12.203125 -9.125 L 12.203125 -1.875 C 12.203125 -1.195312 12.035156 -0.710938 11.703125 -0.421875 C 11.367188 -0.140625 10.789062 0 9.96875 0 L 4.484375 0 C 3.648438 0 3.066406 -0.140625 2.734375 -0.421875 C 2.398438 -0.710938 2.234375 -1.195312 2.234375 -1.875 L 2.234375 -9.125 L 4.28125 -9.125 L 4.28125 -1.65625 L 10.171875 -1.65625 L 10.171875 -9.125 Z M 12.203125 -9.125 "/></g></g></g><g fill="#ffffff" fill-opacity="1"><g transform="translate(254.452731, 236.279003)"><g><path d="M 8.046875 -7.546875 L 4.28125 -7.546875 L 4.28125 -1.65625 L 6.96875 -1.65625 C 7.519531 -1.65625 8.019531 -1.710938 8.46875 -1.828125 C 8.914062 -1.941406 9.285156 -2.09375 9.578125 -2.28125 C 9.867188 -2.476562 10.109375 -2.707031 10.296875 -2.96875 C 10.492188 -3.238281 10.632812 -3.515625 10.71875 -3.796875 C 10.800781 -4.078125 10.84375 -4.375 10.84375 -4.6875 C 10.84375 -5.050781 10.78125 -5.398438 10.65625 -5.734375 C 10.539062 -6.078125 10.367188 -6.382812 10.140625 -6.65625 C 9.921875 -6.925781 9.628906 -7.140625 9.265625 -7.296875 C 8.898438 -7.460938 8.492188 -7.546875 8.046875 -7.546875 Z M 8.09375 0 L 2.234375 0 L 2.234375 -9.125 L 8.09375 -9.125 C 8.726562 -9.125 9.3125 -9.035156 9.84375 -8.859375 C 10.382812 -8.679688 10.835938 -8.441406 11.203125 -8.140625 C 11.578125 -7.835938 11.894531 -7.488281 12.15625 -7.09375 C 12.425781 -6.695312 12.625 -6.273438 12.75 -5.828125 C 12.882812 -5.378906 12.953125 -4.914062 12.953125 -4.4375 C 12.953125 -3.988281 12.890625 -3.550781 12.765625 -3.125 C 12.648438 -2.695312 12.460938 -2.289062 12.203125 -1.90625 C 11.953125 -1.53125 11.640625 -1.203125 11.265625 -0.921875 C 10.890625 -0.640625 10.429688 -0.414062 9.890625 -0.25 C 9.347656 -0.0820312 8.75 0 8.09375 0 Z M 8.09375 0 "/></g></g></g><g fill="#ffffff" fill-opacity="1"><g transform="translate(268.889452, 236.279003)"><g><path d="M 12.953125 -1.875 C 12.953125 -1.195312 12.785156 -0.710938 12.453125 -0.421875 C 12.117188 -0.140625 11.535156 0 10.703125 0 L 4.484375 0 C 3.648438 0 3.066406 -0.140625 2.734375 -0.421875 C 2.398438 -0.710938 2.234375 -1.195312 2.234375 -1.875 L 2.234375 -7.34375 C 2.234375 -7.976562 2.398438 -8.429688 2.734375 -8.703125 C 3.078125 -8.984375 3.660156 -9.125 4.484375 -9.125 L 10.703125 -9.125 C 11.523438 -9.125 12.101562 -8.984375 12.4375 -8.703125 C 12.78125 -8.429688 12.953125 -7.976562 12.953125 -7.34375 Z M 10.921875 -7.546875 L 4.28125 -7.546875 L 4.28125 -1.65625 L 10.921875 -1.65625 Z M 10.921875 -7.546875 "/></g></g></g><g fill="#ffffff" fill-opacity="1"><g transform="translate(284.072899, 236.279003)"><g/></g></g><g fill="#ffffff" fill-opacity="1"><g transform="translate(290.586029, 236.279003)"><g><path d="M 4.1875 0 L 0.203125 -9.125 L 2.296875 -9.125 L 4.84375 -3.28125 L 7.15625 -9.125 L 8.40625 -9.125 L 10.96875 -3.28125 L 13.265625 -9.125 L 15.15625 -9.125 L 11.546875 0 L 10.3125 0 L 7.75 -5.875 L 5.421875 0 Z M 4.1875 0 "/></g></g></g><g fill="#ffffff" fill-opacity="1"><g transform="translate(305.935416, 236.279003)"><g><path d="M 11.296875 0 L 2.234375 0 L 2.234375 -9.125 L 11.171875 -9.125 L 11.171875 -7.546875 L 4.28125 -7.546875 L 4.28125 -5.515625 L 8.921875 -5.515625 L 8.921875 -4.03125 L 4.28125 -4.03125 L 4.28125 -1.65625 L 11.296875 -1.65625 Z M 11.296875 0 "/></g></g></g><g fill="#ffffff" fill-opacity="1"><g transform="translate(318.712744, 236.279003)"><g><path d="M 4.28125 -7.546875 L 4.28125 -5.515625 L 8.921875 -5.515625 C 9.148438 -5.515625 9.34375 -5.585938 9.5 -5.734375 C 9.664062 -5.890625 9.75 -6.082031 9.75 -6.3125 L 9.75 -6.765625 C 9.75 -6.992188 9.664062 -7.179688 9.5 -7.328125 C 9.34375 -7.472656 9.148438 -7.546875 8.921875 -7.546875 Z M 10.359375 -4.765625 C 10.878906 -4.765625 11.242188 -4.625 11.453125 -4.34375 C 11.671875 -4.070312 11.78125 -3.617188 11.78125 -2.984375 L 11.78125 -1.875 C 11.78125 -1.195312 11.613281 -0.710938 11.28125 -0.421875 C 10.957031 -0.140625 10.378906 0 9.546875 0 L 2.234375 0 L 2.234375 -9.125 L 9.546875 -9.125 C 10.367188 -9.125 10.945312 -8.984375 11.28125 -8.703125 C 11.613281 -8.429688 11.78125 -7.976562 11.78125 -7.34375 L 11.78125 -6.515625 C 11.78125 -5.898438 11.671875 -5.453125 11.453125 -5.171875 C 11.234375 -4.898438 10.867188 -4.765625 10.359375 -4.765625 Z M 4.28125 -4.03125 L 4.28125 -1.65625 L 8.921875 -1.65625 C 9.160156 -1.65625 9.359375 -1.734375 9.515625 -1.890625 C 9.671875 -2.054688 9.75 -2.253906 9.75 -2.484375 L 9.75 -3.203125 C 9.75 -3.429688 9.671875 -3.625 9.515625 -3.78125 C 9.359375 -3.945312 9.160156 -4.03125 8.921875 -4.03125 Z M 4.28125 -4.03125 "/></g></g></g><g fill="#5ce1e6" fill-opacity="1"><g transform="translate(128.273434, 280.520168)"><g><path d="M 2.234375 -7.34375 C 2.234375 -7.976562 2.398438 -8.429688 2.734375 -8.703125 C 3.078125 -8.984375 3.660156 -9.125 4.484375 -9.125 L 9.546875 -9.125 C 10.367188 -9.125 10.945312 -8.984375 11.28125 -8.703125 C 11.613281 -8.429688 11.78125 -7.976562 11.78125 -7.34375 L 11.78125 -6.9375 L 9.75 -6.59375 L 9.75 -7.546875 L 4.28125 -7.546875 L 4.28125 -5.515625 L 9.546875 -5.515625 C 10.367188 -5.515625 10.945312 -5.375 11.28125 -5.09375 C 11.613281 -4.820312 11.78125 -4.367188 11.78125 -3.734375 L 11.78125 -1.875 C 11.78125 -1.195312 11.613281 -0.710938 11.28125 -0.421875 C 10.957031 -0.140625 10.378906 0 9.546875 0 L 4.484375 0 C 3.648438 0 3.066406 -0.140625 2.734375 -0.421875 C 2.398438 -0.710938 2.234375 -1.195312 2.234375 -1.875 L 2.234375 -2.578125 L 4.28125 -2.90625 L 4.28125 -1.65625 L 9.75 -1.65625 L 9.75 -4.03125 L 4.484375 -4.03125 C 3.648438 -4.03125 3.066406 -4.171875 2.734375 -4.453125 C 2.398438 -4.742188 2.234375 -5.222656 2.234375 -5.890625 Z M 2.234375 -7.34375 "/></g></g></g><g fill="#5ce1e6" fill-opacity="1"><g transform="translate(142.295306, 280.520168)"><g><path d="M 7.890625 -9.125 L 12.953125 0 L 10.78125 0 L 9.671875 -2 L 3.84375 -2 L 2.734375 0 L 0.75 0 L 5.8125 -9.125 Z M 4.671875 -3.484375 L 8.84375 -3.484375 L 6.75 -7.25 Z M 4.671875 -3.484375 "/></g></g></g><g fill="#5ce1e6" fill-opacity="1"><g transform="translate(155.993597, 280.520168)"><g><path d="M 4.28125 0 L 2.234375 0 L 2.234375 -9.125 L 4.28125 -9.125 Z M 4.28125 0 "/></g></g></g><g fill="#5ce1e6" fill-opacity="1"><g transform="translate(162.506715, 280.520168)"><g><path d="M 4.28125 -7.546875 L 4.28125 -5.515625 L 8.921875 -5.515625 C 9.148438 -5.515625 9.34375 -5.585938 9.5 -5.734375 C 9.664062 -5.890625 9.75 -6.082031 9.75 -6.3125 L 9.75 -6.765625 C 9.75 -6.992188 9.664062 -7.179688 9.5 -7.328125 C 9.34375 -7.472656 9.148438 -7.546875 8.921875 -7.546875 Z M 10.359375 -4.765625 C 10.878906 -4.765625 11.242188 -4.625 11.453125 -4.34375 C 11.671875 -4.070312 11.78125 -3.617188 11.78125 -2.984375 L 11.78125 -1.875 C 11.78125 -1.195312 11.613281 -0.710938 11.28125 -0.421875 C 10.957031 -0.140625 10.378906 0 9.546875 0 L 2.234375 0 L 2.234375 -9.125 L 9.546875 -9.125 C 10.367188 -9.125 10.945312 -8.984375 11.28125 -8.703125 C 11.613281 -8.429688 11.78125 -7.976562 11.78125 -7.34375 L 11.78125 -6.515625 C 11.78125 -5.898438 11.671875 -5.453125 11.453125 -5.171875 C 11.234375 -4.898438 10.867188 -4.765625 10.359375 -4.765625 Z M 4.28125 -4.03125 L 4.28125 -1.65625 L 8.921875 -1.65625 C 9.160156 -1.65625 9.359375 -1.734375 9.515625 -1.890625 C 9.671875 -2.054688 9.75 -2.253906 9.75 -2.484375 L 9.75 -3.203125 C 9.75 -3.429688 9.671875 -3.625 9.515625 -3.78125 C 9.359375 -3.945312 9.160156 -4.03125 8.921875 -4.03125 Z M 4.28125 -4.03125 "/></g></g></g><g fill="#5ce1e6" fill-opacity="1"><g transform="translate(176.528587, 280.520168)"><g><path d="M 7.890625 -9.125 L 12.953125 0 L 10.78125 0 L 9.671875 -2 L 3.84375 -2 L 2.734375 0 L 0.75 0 L 5.8125 -9.125 Z M 4.671875 -3.484375 L 8.84375 -3.484375 L 6.75 -7.25 Z M 4.671875 -3.484375 "/></g></g></g><g fill="#5ce1e6" fill-opacity="1"><g transform="translate(190.226878, 280.520168)"><g/></g></g><g fill="#5ce1e6" fill-opacity="1"><g transform="translate(196.739997, 280.520168)"><g><path d="M 13.53125 -9.125 L 13.53125 0 L 11.5 0 L 11.5 -6 L 8.28125 -1.078125 L 7.390625 -1.078125 L 4.28125 -5.84375 L 4.28125 0 L 2.234375 0 L 2.234375 -9.125 L 4.40625 -9.125 L 7.9375 -3.75 L 11.46875 -9.125 Z M 13.53125 -9.125 "/></g></g></g><g fill="#5ce1e6" fill-opacity="1"><g transform="translate(212.504232, 280.520168)"><g><path d="M 7.890625 -9.125 L 12.953125 0 L 10.78125 0 L 9.671875 -2 L 3.84375 -2 L 2.734375 0 L 0.75 0 L 5.8125 -9.125 Z M 4.671875 -3.484375 L 8.84375 -3.484375 L 6.75 -7.25 Z M 4.671875 -3.484375 "/></g></g></g><g fill="#5ce1e6" fill-opacity="1"><g transform="translate(226.202523, 280.520168)"><g><path d="M 4.28125 0 L 2.234375 0 L 2.234375 -9.125 L 4.28125 -9.125 Z M 4.28125 0 "/></g></g></g><g fill="#5ce1e6" fill-opacity="1"><g transform="translate(232.715641, 280.520168)"><g><path d="M 2.234375 -7.34375 C 2.234375 -7.976562 2.398438 -8.429688 2.734375 -8.703125 C 3.078125 -8.984375 3.660156 -9.125 4.484375 -9.125 L 9.546875 -9.125 C 10.367188 -9.125 10.945312 -8.984375 11.28125 -8.703125 C 11.613281 -8.429688 11.78125 -7.976562 11.78125 -7.34375 L 11.78125 -6.9375 L 9.75 -6.59375 L 9.75 -7.546875 L 4.28125 -7.546875 L 4.28125 -5.515625 L 9.546875 -5.515625 C 10.367188 -5.515625 10.945312 -5.375 11.28125 -5.09375 C 11.613281 -4.820312 11.78125 -4.367188 11.78125 -3.734375 L 11.78125 -1.875 C 11.78125 -1.195312 11.613281 -0.710938 11.28125 -0.421875 C 10.957031 -0.140625 10.378906 0 9.546875 0 L 4.484375 0 C 3.648438 0 3.066406 -0.140625 2.734375 -0.421875 C 2.398438 -0.710938 2.234375 -1.195312 2.234375 -1.875 L 2.234375 -2.578125 L 4.28125 -2.90625 L 4.28125 -1.65625 L 9.75 -1.65625 L 9.75 -4.03125 L 4.484375 -4.03125 C 3.648438 -4.03125 3.066406 -4.171875 2.734375 -4.453125 C 2.398438 -4.742188 2.234375 -5.222656 2.234375 -5.890625 Z M 2.234375 -7.34375 "/></g></g></g></svg>